# xmcd
#
# Track frame offsets:
#	150
#	21177
#	43347
#	66147
#	83927
#	114110
#	134670
#	155005
#	183395
#	209347
#	232142
#	251580
#
# Disc length: 3758 seconds
#
# Revision: 0
# Processed by: cddbd v1.5.2PL0 Copyright (c) Steve Scherf et al.
# Submitted via: EZCDAudioConverter 1.0.2.1
#
DISCID=ad0eac0c
DTITLE=C-Nario
DYEAR=1997
DGENRE=R&B
TTITLE0=C-Nario - Body Fusion IV
TTITLE1=C-Nario - Phone First
TTITLE2=C-Naril - Does The Other Woman Know
TTITLE3=C-Naril - You Blow My Mind
TTITLE4=C-Nario - You Gonna Make Me Love Somebody Else
TTITLE5=C-Nario - Don't Take Your Love Away
TTITLE6=C-Nario - When You're In Love
TTITLE7=C-Nario - Body Fusion III
TTITLE8=C-Nario - Ouch On The Couch
TTITLE9=C-Nario - Body Fusion IV [Remix]
TTITLE10=C-Nario - Sex Appeal
TTITLE11=C-Nario - Don't Make Me Do The Same To You
EXTD=
EXTT0=
EXTT1=
EXTT2=
EXTT3=
EXTT4=
EXTT5=
EXTT6=
EXTT7=
EXTT8=
EXTT9=
EXTT10=
EXTT11=
PLAYORDER=
